<svg width="512" height="512" viewBox="0 0 512 512" fill="none" xmlns="http://www.w3.org/2000/svg">
<rect width="512" height="512" rx="64" fill="url(#paint0_linear_84_18)"/>
<path d="M119.109 173.75V333H86.4062V173.75H119.109ZM279.453 173.75V333H246.641L182.656 226.25V333H149.844V173.75H182.656L246.75 280.609V173.75H279.453ZM395.938 173.75H428.641V278.969C428.641 291.219 426.016 301.536 420.766 309.922C415.589 318.307 408.406 324.615 399.219 328.844C390.104 333.073 379.604 335.188 367.719 335.188C355.833 335.188 345.26 333.073 336 328.844C326.812 324.615 319.594 318.307 314.344 309.922C309.167 301.536 306.578 291.219 306.578 278.969V173.75H339.391V278.969C339.391 286.115 340.521 291.948 342.781 296.469C345.042 300.99 348.286 304.307 352.516 306.422C356.818 308.536 361.885 309.594 367.719 309.594C373.698 309.594 378.766 308.536 382.922 306.422C387.151 304.307 390.359 300.99 392.547 296.469C394.807 291.948 395.938 286.115 395.938 278.969V173.75Z" fill="white"/>
<defs>
<linearGradient id="paint0_linear_84_18" x1="0" y1="0" x2="512" y2="512" gradientUnits="userSpaceOnUse">
<stop stop-color="#00E5FF"/>
<stop offset="1" stop-color="#2279FF"/>
</linearGradient>
</defs>
</svg>
